<svg enable-background="new 0 0 515.91 728.5" height="512" id="Layer_1" version="1.1" viewBox="0 0 512.00003 512" width="512" xml:space="preserve" xmlns="http://www.w3.org/2000/svg" xmlns:cc="http://creativecommons.org/ns#" xmlns:dc="http://purl.org/dc/elements/1.1/" xmlns:inkscape="http://www.inkscape.org/namespaces/inkscape" xmlns:rdf="http://www.w3.org/1999/02/22-rdf-syntax-ns#" xmlns:sodipodi="http://sodipodi.sourceforge.net/DTD/sodipodi-0.dtd" xmlns:svg="http://www.w3.org/2000/svg"><defs id="defs7"/><rect height="512" id="rect2984" rx="64" ry="64" style="fill:#282828;fill-opacity:1;fill-rule:nonzero;stroke:none" width="512" x="1.5e-005" y="0"/><g id="g12558" style="fill:#ffffff;fill-opacity:1" transform="matrix(0.83227468,0,0,0.83227468,-663.54093,-601.79462)"><path d="m 1289.8587,862.97387 c 0.469,3.282 0.726,6.632 0.726,10.042 v 1.051 c 17.279,8.009 29.271,25.496 29.271,45.793 v 193.75803 c 0,25.285 -18.598,46.223 -42.859,49.889 l 9.557,65.156 -60.162,-64.586 H 999.95175 c -6.735,0 -13.156,-1.33 -19.03,-3.725 l -7.201,7.731 c 7.938,3.839 16.837,5.993 26.231,5.993 h 222.08595 l 57.197,61.402 21.864,23.475 -4.652,-31.742 -8.232,-56.129 c 10.326,-3.385 19.639,-9.535 26.861,-17.859 9.529,-10.983 14.777,-25.049 14.777,-39.606 V 919.85887 c 0,-26.157 -16.699,-48.481 -39.994,-56.885 z" id="path12560" style="fill:#ffffff;fill-opacity:1;stroke:none"/><path d="m 1002.2857,1137.4159 h 217.657 c 38.951,0 70.642,-31.689 70.642,-70.641 v -192.70903 -1.051 c 0,-3.41 -0.257,-6.759 -0.726,-10.042 -4.893,-34.21 -34.375,-60.6 -69.916,-60.6 H 950.49375 c -38.951,10e-4 -70.641,31.691 -70.641,70.642 v 193.76003 c 0,17.009 6.133,33.442 17.27,46.278 6.509,7.499 14.472,13.491 23.315,17.652 l -7.067,48.184 -9.395,64.064 44.132,-47.377 25.611,-27.493 7.201,-7.731 21.36595,-22.936 z m -68.94695,44.403 9.556,-65.157 c -24.262,-3.665 -42.859,-24.604 -42.859,-49.888 V 873.01487 c 0,-27.867 22.591,-50.458 50.458,-50.458 h 269.44595 c 27.868,0 50.458,22.591 50.458,50.458 v 193.75903 c 0,27.867 -22.59,50.458 -50.458,50.458 H 993.50075 l -60.162,64.587 z" id="path240" style="fill:#ffffff;fill-opacity:1;stroke:none"/><path d="m 1024.7647,932.95287 c 11.598,0 21,-7.402 21,-19 0,-11.598 -9.402,-21 -21,-21 h -36.01595 l -7.896,40 h 43.91195 z" id="path244" style="fill:#ffffff;fill-opacity:1"/><path d="m 1108.3647,932.95287 c 11.598,0 21,-7.402 21,-19 0,-11.598 -9.402,-21 -21,-21 h -35.704 l -7.896,40 h 43.6 z" id="path246" style="fill:#ffffff;fill-opacity:1"/><path d="m 1014.2527,992.95287 c 11.598,0 21,-7.402 21,-19 0,-11.598 -9.402,-21 -21,-21 h -36.01595 l -7.896,40 h 43.91195 z" id="path248-31" style="fill:#ffffff;fill-opacity:1"/><path d="m 1097.8527,992.95287 c 11.598,0 21,-7.402 21,-19 0,-11.598 -9.402,-21 -21,-21 h -35.704 l -7.896,40 h 43.6 z" id="path250" style="fill:#ffffff;fill-opacity:1"/><path d="m 1087.4527,1052.9529 c 11.598,0 21,-7.402 21,-19 0,-11.598 -9.402,-21 -21,-21 h -35.704 l -7.896,40 h 43.6 z" id="path252" style="fill:#ffffff;fill-opacity:1"/><path d="m 1181.8527,972.95287 c 11.598,0 21,-7.402 21,-19 0,-11.598 -9.402,-21 -21,-21 h -35.703 l -7.896,40 h 43.599 z" id="path254" style="fill:#ffffff;fill-opacity:1"/><path d="m 1171.3407,1032.9529 c 11.598,0 21,-7.402 21,-19 0,-11.598 -9.402,-21.00003 -21,-21.00003 h -35.703 l -7.896,40.00003 h 43.599 z" id="path256" style="fill:#ffffff;fill-opacity:1"/></g></svg>
