<?xml version="1.0" encoding="iso-8859-1"?>
<!-- Generator: Adobe Illustrator 18.0.0, SVG Export Plug-In . SVG Version: 6.00 Build 0)  -->
<!DOCTYPE svg PUBLIC "-//W3C//DTD SVG 1.1//EN" "http://www.w3.org/Graphics/SVG/1.1/DTD/svg11.dtd">
<svg version="1.1" id="Capa_1" xmlns="http://www.w3.org/2000/svg" xmlns:xlink="http://www.w3.org/1999/xlink" x="0px" y="0px"
	 viewBox="0 0 357.189 357.189" style="enable-background:new 0 0 357.189 357.189;" xml:space="preserve">
<g>
	<g>
		<path d="M274.395,50.469V15.024c0-5.353-4.339-9.693-9.692-9.693H129.16V4.847c0-2.677-2.17-4.847-4.847-4.847h-19.709
			c-2.676,0-4.846,2.17-4.846,4.847v0.484H88.286c-5.352,0-9.691,4.34-9.691,9.693v332.473c0,5.353,4.34,9.692,9.691,9.692h176.416
			c5.354,0,9.692-4.339,9.692-9.692V103.975c2.368-0.319,4.2-2.328,4.2-4.782V55.251C278.595,52.797,276.763,50.788,274.395,50.469z
			 M145.073,19.306h62.844v10.985h-62.844V19.306z M176.495,339.257c-5.89,0-10.662-4.773-10.662-10.662s4.772-10.662,10.662-10.662
			c5.889,0,10.662,4.773,10.662,10.662S182.384,339.257,176.495,339.257z M244.347,301.939H108.644V46.042h135.703V301.939z"/>
		<g>
			<polygon style="stroke:#000000;stroke-width:3.6362;stroke-linecap:round;stroke-linejoin:round;stroke-miterlimit:10;" points="
				166.638,168.152 166.638,131.317 136.495,137.797 136.495,168.152 			"/>
			<polygon style="stroke:#000000;stroke-width:3.6362;stroke-linecap:round;stroke-linejoin:round;stroke-miterlimit:10;" points="
				178.314,179.828 178.314,218.392 216.495,226.596 216.495,179.828 			"/>
			<polygon style="stroke:#000000;stroke-width:3.6362;stroke-linecap:round;stroke-linejoin:round;stroke-miterlimit:10;" points="
				178.314,168.152 216.495,168.152 216.495,121.385 178.314,129.589 			"/>
			<polygon style="stroke:#000000;stroke-width:3.6362;stroke-linecap:round;stroke-linejoin:round;stroke-miterlimit:10;" points="
				166.638,179.828 136.495,179.828 136.495,210.185 166.638,216.663 			"/>
		</g>
	</g>
</g>
<g>
</g>
<g>
</g>
<g>
</g>
<g>
</g>
<g>
</g>
<g>
</g>
<g>
</g>
<g>
</g>
<g>
</g>
<g>
</g>
<g>
</g>
<g>
</g>
<g>
</g>
<g>
</g>
<g>
</g>
</svg>
