<?xml version="1.0" encoding="iso-8859-1"?>
<!-- Generator: Adobe Illustrator 18.1.1, SVG Export Plug-In . SVG Version: 6.00 Build 0)  -->
<svg version="1.1" id="Capa_1" xmlns="http://www.w3.org/2000/svg" xmlns:xlink="http://www.w3.org/1999/xlink" x="0px" y="0px"
	 viewBox="0 0 492 492" style="enable-background:new 0 0 492 492;" xml:space="preserve">
<g>
	<g>
		<path style="fill:#010002;" d="M492,164c0-2.667-1-5-3-7s-4.333-3-7-3H348c-2.667,0-5-1-7-3s-3-4.333-3-7V10c0-2.667-1-5-3-7
			s-4.333-3-7-3H164c-2.667,0-5,1-7,3s-3,4.333-3,7v134c0,2.667-1,5-3,7s-4.333,3-7,3H10c-2.667,0-5,1-7,3s-3,4.333-3,7v164
			c0,2.667,1,5,3,7s4.333,3,7,3h134c2.667,0,5,1,7,3s3,4.333,3,7v134c0,2.667,1,5,3,7s4.333,3,7,3h164c2.667,0,5-1,7-3s3-4.333,3-7
			V348c0-2.667,1-5,3-7s4.333-3,7-3h134c2.667,0,5-1,7-3s3-4.333,3-7V164z"/>
	</g>
</g>
<g>
</g>
<g>
</g>
<g>
</g>
<g>
</g>
<g>
</g>
<g>
</g>
<g>
</g>
<g>
</g>
<g>
</g>
<g>
</g>
<g>
</g>
<g>
</g>
<g>
</g>
<g>
</g>
<g>
</g>
</svg>
